<svg aria-hidden="true" style="position: absolute; width: 0; height: 0; overflow: hidden;" version="1.1" xmlns="http://www.w3.org/2000/svg" xmlns:xlink="http://www.w3.org/1999/xlink">
<defs>
<symbol id="icon-menu" viewBox="0 0 32 32">
<path fill="#fff" style="fill: var(--color1, #fff)" d="M8 9.333h6.667c0.354 0 0.693 0.14 0.943 0.391s0.391 0.589 0.391 0.943c0 0.354-0.141 0.693-0.391 0.943s-0.589 0.391-0.943 0.391h-6.667c-0.354 0-0.693-0.14-0.943-0.391s-0.391-0.589-0.391-0.943c0-0.354 0.14-0.693 0.391-0.943s0.589-0.391 0.943-0.391zM17.333 20h6.667c0.354 0 0.693 0.141 0.943 0.391s0.391 0.589 0.391 0.943c0 0.354-0.141 0.693-0.391 0.943s-0.589 0.391-0.943 0.391h-6.667c-0.354 0-0.693-0.141-0.943-0.391s-0.391-0.589-0.391-0.943c0-0.354 0.141-0.693 0.391-0.943s0.589-0.391 0.943-0.391zM8 14.667h16c0.354 0 0.693 0.141 0.943 0.391s0.391 0.589 0.391 0.943c0 0.354-0.141 0.693-0.391 0.943s-0.589 0.391-0.943 0.391h-16c-0.354 0-0.693-0.141-0.943-0.391s-0.391-0.589-0.391-0.943c0-0.354 0.14-0.693 0.391-0.943s0.589-0.391 0.943-0.391z"></path>
</symbol>
<symbol id="icon-logo" viewBox="0 0 104 32">
<path fill="#21a038" style="fill: var(--color2, #21a038)" d="M16.022 1.953c-1.888 0-3.758 0.363-5.503 1.069s-3.33 1.741-4.665 3.045c-1.335 1.304-2.394 2.853-3.117 4.557s-1.095 3.531-1.095 5.375c0 1.845 0.372 3.671 1.095 5.375s1.782 3.253 3.117 4.557c1.335 1.304 2.92 2.339 4.665 3.045s3.614 1.069 5.503 1.069v-7.023c-0.944 0-1.879-0.182-2.751-0.535s-1.665-0.87-2.332-1.522c-0.668-0.652-1.197-1.426-1.558-2.279s-0.547-1.765-0.547-2.688 0.186-1.836 0.547-2.688c0.361-0.852 0.891-1.626 1.558-2.279s1.46-1.169 2.332-1.522c0.872-0.353 1.807-0.535 2.751-0.535v-7.023z"></path>
<path fill="#21a038" style="fill: var(--color2, #21a038)" d="M16.022 20.682c2.647 0 4.793-2.096 4.793-4.682s-2.146-4.682-4.793-4.682c-2.647 0-4.793 2.096-4.793 4.682s2.146 4.682 4.793 4.682z"></path>
<path fill="#21a038" style="fill: var(--color2, #21a038)" d="M1.643 16c0 1.845 0.372 3.671 1.095 5.375s1.782 3.253 3.117 4.557c1.335 1.304 2.92 2.339 4.665 3.045s3.614 1.069 5.503 1.069 3.758-0.363 5.502-1.069c1.744-0.706 3.33-1.741 4.665-3.045s2.394-2.853 3.117-4.557c0.723-1.704 1.095-3.531 1.095-5.375h-7.189c0 0.922-0.186 1.836-0.547 2.688s-0.891 1.626-1.558 2.279c-0.668 0.652-1.46 1.169-2.332 1.522s-1.807 0.535-2.751 0.535c-0.944 0-1.879-0.182-2.751-0.535s-1.665-0.87-2.332-1.522c-0.668-0.652-1.197-1.426-1.558-2.279s-0.547-1.765-0.547-2.688h-7.189z"></path>
<path fill="#21a038" style="fill: var(--color2, #21a038)" d="M20.815 16c0-1.242-0.505-2.433-1.404-3.311s-2.118-1.371-3.389-1.371-2.49 0.493-3.389 1.371c-0.899 0.878-1.404 2.069-1.404 3.311h9.586z"></path>
<path fill="#2c3136" style="fill: var(--color3, #2c3136)" d="M37.91 10.723h-1.786v9.692h1.786v-9.692z"></path>
<path fill="#2c3136" style="fill: var(--color3, #2c3136)" d="M39.076 16.981c0 2.243 1.587 3.628 3.685 3.628s3.685-1.385 3.685-3.628-1.587-3.628-3.685-3.628c-2.098 0-3.685 1.385-3.685 3.628zM40.862 16.981c0-1.329 0.794-2.105 1.899-2.105s1.899 0.775 1.899 2.105c0 1.329-0.794 2.105-1.899 2.105s-1.899-0.775-1.899-2.105z"></path>
<path fill="#2c3136" style="fill: var(--color3, #2c3136)" d="M52.828 13.547v0.928h-0.142c-0.425-0.595-1.106-1.122-2.324-1.122-1.672 0-3.175 1.385-3.175 3.517s1.502 3.517 3.175 3.517c1.219 0 1.899-0.54 2.296-1.080h0.142v0.665c0 1.329-0.794 1.938-1.956 1.938s-1.758-0.609-1.998-1.399l-1.602 0.679c0.368 1.038 1.446 2.188 3.628 2.188 2.239 0 3.713-1.149 3.713-3.365v-6.466h-1.757zM50.9 18.892c-1.106 0-1.928-0.775-1.928-2.022s0.822-2.022 1.928-2.022 1.928 0.775 1.928 2.022c0 1.246-0.822 2.022-1.928 2.022z"></path>
<path fill="#2c3136" style="fill: var(--color3, #2c3136)" d="M55.741 16.981c0 2.243 1.587 3.628 3.685 3.628s3.685-1.385 3.685-3.628c0-2.243-1.587-3.628-3.685-3.628s-3.685 1.385-3.685 3.628zM57.527 16.981c0-1.329 0.794-2.105 1.899-2.105s1.899 0.775 1.899 2.105c0 1.329-0.794 2.105-1.899 2.105s-1.899-0.775-1.899-2.105z"></path>
<path fill="#2c3136" style="fill: var(--color3, #2c3136)" d="M64.512 11.553c0 0.706 0.553 1.191 1.262 1.191s1.261-0.485 1.261-1.191c0-0.706-0.553-1.191-1.261-1.191s-1.262 0.485-1.262 1.191zM66.667 13.547h-1.785v6.868h1.785v-6.868z"></path>
<path fill="#2c3136" style="fill: var(--color3, #2c3136)" d="M68.258 23.184h1.786v-3.655h0.141c0.397 0.554 1.078 1.080 2.296 1.080 1.672 0 3.175-1.385 3.175-3.628s-1.503-3.628-3.175-3.628c-1.219 0-1.899 0.526-2.324 1.122h-0.142v-0.928h-1.758v9.637zM71.944 19.113c-1.105 0-1.928-0.775-1.928-2.132s0.822-2.132 1.928-2.132c1.105 0 1.927 0.775 1.927 2.132s-0.822 2.132-1.927 2.132z"></path>
<path fill="#2c3136" style="fill: var(--color3, #2c3136)" d="M76.699 15.472c0 1.357 1.162 1.855 2.636 2.132l0.369 0.069c0.879 0.166 1.275 0.374 1.275 0.817s-0.397 0.789-1.219 0.789c-0.822 0-1.487-0.332-1.672-1.329l-1.645 0.415c0.242 1.44 1.474 2.243 3.317 2.243 1.786 0 2.948-0.817 2.948-2.257s-1.19-1.828-2.778-2.132l-0.369-0.069c-0.737-0.138-1.134-0.332-1.134-0.789 0-0.415 0.369-0.678 1.049-0.678s1.162 0.277 1.332 1.025l1.616-0.485c-0.34-1.108-1.375-1.869-2.948-1.869-1.673 0-2.778 0.762-2.778 2.119z"></path>
<path fill="#2c3136" style="fill: var(--color3, #2c3136)" d="M90.73 20.415v-6.868h-1.785v3.545c0 1.274-0.638 2.021-1.729 2.021-0.964 0-1.502-0.512-1.502-1.551v-4.015h-1.786v4.098c0 1.703 1.092 2.88 2.736 2.88 1.289 0 1.885-0.554 2.168-1.135h0.141v1.025h1.757z"></path>
<path fill="#2c3136" style="fill: var(--color3, #2c3136)" d="M92.314 13.547v6.868h1.786v-4.098c0-0.942 0.454-1.468 1.275-1.468 0.71 0 1.134 0.388 1.134 1.135v4.431h1.786v-4.098c0-0.942 0.454-1.468 1.275-1.468 0.709 0 1.134 0.388 1.134 1.135v4.431h1.786v-4.514c0-1.662-1.050-2.465-2.353-2.465-1.148 0-1.672 0.498-2.013 1.080h-0.142c-0.326-0.651-0.907-1.080-1.928-1.080s-1.574 0.443-1.842 0.969h-0.142v-0.858h-1.757z"></path>
</symbol>
<symbol id="icon-icon" viewBox="0 0 32 32">
<path d="M32 16c0 8.837-7.163 16-16 16s-16-7.163-16-16c0-8.837 7.163-16 16-16s16 7.163 16 16z"></path>
<path fill="none" stroke="#fff" style="stroke: var(--color1, #fff)" stroke-linejoin="round" stroke-linecap="round" stroke-miterlimit="4" stroke-width="1.4222" d="M11.378 13.511c0 1.132 0.45 2.217 1.25 3.017s1.885 1.25 3.017 1.25 2.217-0.45 3.017-1.25c0.8-0.8 1.25-1.885 1.25-3.017s-0.45-2.217-1.25-3.017c-0.8-0.8-1.885-1.25-3.017-1.25s-2.217 0.45-3.017 1.25c-0.8 0.8-1.25 1.885-1.25 3.017z"></path>
<path fill="none" stroke="#fff" style="stroke: var(--color1, #fff)" stroke-linejoin="round" stroke-linecap="round" stroke-miterlimit="4" stroke-width="1.4222" d="M15.644 17.778l2.418 4.188 1.136-2.299 2.559 0.165-2.418-4.188M11.948 15.644l-2.418 4.188 2.559-0.166 1.136 2.298 2.418-4.188"></path>
</symbol>
</defs>
</svg>
